# UnrealEd OBJ exporter (_Internal)



v 0.951057 -2.000000 -0.309017

v 0.809018 -2.000000 -0.587786

v 0.000000 0.000000 -0.000000

v 0.587786 -2.000000 -0.809017

v 0.000000 0.000000 -0.000000

v 0.309017 -2.000000 -0.951057

v 0.000000 0.000000 -0.000000

v 0.000000 -2.000000 -1.000000

v 0.000000 0.000000 -0.000000

v -0.309017 -2.000000 -0.951057

v 0.000000 0.000000 -0.000000

v -0.587785 -2.000000 -0.809017

v 0.000000 0.000000 -0.000000

v -0.809017 -2.000000 -0.587785

v 0.000000 0.000000 -0.000000

v -0.951057 -2.000000 -0.309017

v 0.000000 0.000000 -0.000000

v -1.000000 -2.000000 0.000000

v 0.000000 0.000000 -0.000000

v -0.951057 -2.000000 0.309017

v 0.000000 0.000000 -0.000000

v -0.809017 -2.000000 0.587785

v 0.000000 0.000000 -0.000000

v -0.587785 -2.000000 0.809017

v 0.000000 0.000000 -0.000000

v -0.309017 -2.000000 0.951057

v 0.000000 0.000000 -0.000000

v -0.000000 -2.000000 1.000000

v 0.000000 0.000000 -0.000000

v 0.309017 -2.000000 0.951057

v 0.000000 0.000000 -0.000000

v 0.587785 -2.000000 0.809017

v 0.000000 0.000000 -0.000000

v 0.809017 -2.000000 0.587785

v 0.000000 0.000000 -0.000000

v 0.951057 -2.000000 0.309017

v 1.000000 -2.000000 0.000000

v 0.000000 0.000000 -0.000000

v 0.951057 -2.000000 -0.309017

v 0.000000 0.000000 -0.000000

v 0.951057 -2.000000 -0.309017

v 1.000000 -2.000000 0.000000

v 0.809018 -2.000000 -0.587786

v 0.951057 -2.000000 0.309017

v 0.809017 -2.000000 0.587785

v 0.587785 -2.000000 0.809017

v 0.309017 -2.000000 0.951057

v -0.000000 -2.000000 1.000000

v -0.309017 -2.000000 0.951057

v -0.587785 -2.000000 0.809017

v -0.809017 -2.000000 0.587785

v -0.951057 -2.000000 0.309017

v -1.000000 -2.000000 0.000000

v -0.951057 -2.000000 -0.309017

v -0.809017 -2.000000 -0.587785

v -0.587785 -2.000000 -0.809017

v -0.309017 -2.000000 -0.951057

v 0.000000 -2.000000 -1.000000

v 0.309017 -2.000000 -0.951057

v 0.587786 -2.000000 -0.809017



vt 0.250000 0.500000

vt 0.274902 0.500000

vt 0.500000 1.000000

vt 0.299805 0.500000

vt 0.500000 1.000000

vt 0.324951 0.500000

vt 0.500000 1.000000

vt 0.349854 0.500000

vt 0.500000 1.000000

vt 0.375000 0.500000

vt 0.500000 1.000000

vt 0.399902 0.500000

vt 0.500000 1.000000

vt 0.424805 0.500000

vt 0.500000 1.000000

vt 0.449951 0.500000

vt 0.500000 1.000000

vt 0.474854 0.500000

vt 0.500000 1.000000

vt 0.500000 0.500000

vt 0.500000 1.000000

vt 0.524902 0.500000

vt 0.500000 1.000000

vt 0.549805 0.500000

vt 0.500000 1.000000

vt 0.574707 0.500000

vt 0.500000 1.000000

vt 0.599609 0.500000

vt 0.500000 1.000000

vt 0.624512 0.500000

vt 0.500000 1.000000

vt 0.649902 0.500000

vt 0.500000 1.000000

vt 0.674805 0.500000

vt 0.500000 1.000000

vt 0.699707 0.500000

vt 0.724609 0.500000

vt 0.500000 1.000000

vt 0.749512 0.500000

vt 0.500000 1.000000

vt 0.737305 0.172852

vt 0.750000 0.250000

vt 0.702148 0.103516

vt 0.737305 0.327637

vt 0.702148 0.396973

vt 0.646484 0.452637

vt 0.577148 0.487793

vt 0.500000 0.500000

vt 0.422607 0.487793

vt 0.353027 0.452637

vt 0.297607 0.396973

vt 0.262207 0.327637

vt 0.249878 0.250000

vt 0.262207 0.172852

vt 0.297607 0.103516

vt 0.353027 0.047852

vt 0.422607 0.012695

vt 0.500000 0.000000

vt 0.577148 0.012695

vt 0.646484 0.047852



vn 0.850394 0.448819 -0.275591

vn 0.724409 0.448819 -0.527559

vn 0.000000 1.000000 0.000000

vn 0.527559 0.448819 -0.724409

vn 0.000000 1.000000 0.000000

vn 0.275591 0.448819 -0.850394

vn 0.000000 1.000000 0.000000

vn 0.000000 0.448819 -0.897638

vn 0.000000 1.000000 0.000000

vn -0.275591 0.448819 -0.850394

vn 0.000000 1.000000 0.000000

vn -0.527559 0.448819 -0.724409

vn 0.000000 1.000000 0.000000

vn -0.724409 0.448819 -0.527559

vn 0.000000 1.000000 0.000000

vn -0.850394 0.448819 -0.275591

vn 0.000000 1.000000 0.000000

vn -0.897638 0.448819 0.000000

vn 0.000000 1.000000 0.000000

vn -0.850394 0.448819 0.275591

vn 0.000000 1.000000 0.000000

vn -0.724409 0.448819 0.527559

vn 0.000000 1.000000 0.000000

vn -0.527559 0.448819 0.724409

vn 0.000000 1.000000 0.000000

vn -0.275591 0.448819 0.850394

vn 0.000000 1.000000 0.000000

vn 0.000000 0.448819 0.897638

vn 0.000000 1.000000 0.000000

vn 0.275591 0.448819 0.850394

vn 0.000000 1.000000 0.000000

vn 0.527559 0.448819 0.724409

vn 0.000000 1.000000 0.000000

vn 0.724409 0.448819 0.527559

vn 0.000000 1.000000 0.000000

vn 0.850394 0.448819 0.275591

vn 0.897638 0.448819 0.000000

vn 0.000000 1.000000 0.000000

vn 0.850394 0.448819 -0.275591

vn 0.000000 1.000000 0.000000

vn 0.000000 -1.000000 0.000000

vn 0.000000 -1.000000 0.000000

vn 0.000000 -1.000000 0.000000

vn 0.000000 -1.000000 0.000000

vn 0.000000 -1.000000 0.000000

vn 0.000000 -1.000000 0.000000

vn 0.000000 -1.000000 0.000000

vn 0.000000 -1.000000 0.000000

vn 0.000000 -1.000000 0.000000

vn 0.000000 -1.000000 0.000000

vn 0.000000 -1.000000 0.000000

vn 0.000000 -1.000000 0.000000

vn 0.000000 -1.000000 0.000000

vn 0.000000 -1.000000 0.000000

vn 0.000000 -1.000000 0.000000

vn 0.000000 -1.000000 0.000000

vn 0.000000 -1.000000 0.000000

vn 0.000000 -1.000000 0.000000

vn 0.000000 -1.000000 0.000000

vn 0.000000 -1.000000 0.000000

f 1/1/1 2/2/2 3/3/3

f 2/2/2 4/4/4 5/5/5

f 4/4/4 6/6/6 7/7/7

f 6/6/6 8/8/8 9/9/9

f 8/8/8 10/10/10 11/11/11

f 10/10/10 12/12/12 13/13/13

f 12/12/12 14/14/14 15/15/15

f 14/14/14 16/16/16 17/17/17

f 16/16/16 18/18/18 19/19/19

f 18/18/18 20/20/20 21/21/21

f 20/20/20 22/22/22 23/23/23

f 22/22/22 24/24/24 25/25/25

f 24/24/24 26/26/26 27/27/27

f 26/26/26 28/28/28 29/29/29

f 28/28/28 30/30/30 31/31/31

f 30/30/30 32/32/32 33/33/33

f 32/32/32 34/34/34 35/35/35

f 34/34/34 36/36/36 17/17/17

f 36/36/36 37/37/37 38/38/38

f 37/37/37 39/39/39 40/40/40

f 41/41/41 42/42/42 43/43/43

f 42/42/42 44/44/44 43/43/43

f 44/44/44 45/45/45 43/43/43

f 45/45/45 46/46/46 43/43/43

f 46/46/46 47/47/47 43/43/43

f 47/47/47 48/48/48 43/43/43

f 48/48/48 49/49/49 43/43/43

f 49/49/49 50/50/50 43/43/43

f 50/50/50 51/51/51 43/43/43

f 51/51/51 52/52/52 43/43/43

f 52/52/52 53/53/53 43/43/43

f 53/53/53 54/54/54 43/43/43

f 54/54/54 55/55/55 43/43/43

f 55/55/55 56/56/56 43/43/43

f 56/56/56 57/57/57 43/43/43

f 57/57/57 58/58/58 43/43/43

f 58/58/58 59/59/59 43/43/43

f 59/59/59 60/60/60 43/43/43

