# This file uses centimeters as units for non-parametric coordinates.

mtllib SpotLight_Corn_Forward.mtl
g default
v 2.000000 -0.309017 -0.951057
v 2.000000 -0.587786 -0.809018
v 0.000000 0.000000 0.000000
v 2.000000 -0.809017 -0.587786
v 0.000000 0.000000 0.000000
v 2.000000 -0.951057 -0.309017
v 0.000000 0.000000 0.000000
v 2.000000 -1.000000 0.000000
v 0.000000 0.000000 0.000000
v 2.000000 -0.951057 0.309017
v 0.000000 0.000000 0.000000
v 2.000000 -0.809017 0.587785
v 0.000000 0.000000 0.000000
v 2.000000 -0.587785 0.809017
v 0.000000 0.000000 0.000000
v 2.000000 -0.309017 0.951057
v 0.000000 0.000000 0.000000
v 2.000000 0.000000 1.000000
v 0.000000 0.000000 0.000000
v 2.000000 0.309017 0.951057
v 0.000000 0.000000 0.000000
v 2.000000 0.587785 0.809017
v 0.000000 0.000000 0.000000
v 2.000000 0.809017 0.587785
v 0.000000 0.000000 0.000000
v 2.000000 0.951057 0.309017
v 0.000000 0.000000 0.000000
v 2.000000 1.000000 0.000000
v 0.000000 0.000000 0.000000
v 2.000000 0.951057 -0.309017
v 0.000000 0.000000 0.000000
v 2.000000 0.809017 -0.587785
v 0.000000 0.000000 0.000000
v 2.000000 0.587785 -0.809017
v 0.000000 0.000000 0.000000
v 2.000000 0.309017 -0.951057
v 0.000000 0.000000 0.000000
v 2.000000 0.000000 -1.000000
v 0.000000 0.000000 0.000000
v 2.000000 -0.309017 -0.951057
v 0.000000 0.000000 0.000000
v 2.000000 -0.309017 -0.951057
v 2.000000 0.000000 -1.000000
v 2.000000 -0.587786 -0.809018
v 2.000000 0.309017 -0.951057
v 2.000000 0.587785 -0.809017
v 2.000000 0.809017 -0.587785
v 2.000000 0.951057 -0.309017
v 2.000000 1.000000 0.000000
v 2.000000 0.951057 0.309017
v 2.000000 0.809017 0.587785
v 2.000000 0.587785 0.809017
v 2.000000 0.309017 0.951057
v 2.000000 0.000000 1.000000
v 2.000000 -0.309017 0.951057
v 2.000000 -0.587785 0.809017
v 2.000000 -0.809017 0.587785
v 2.000000 -0.951057 0.309017
v 2.000000 -1.000000 0.000000
v 2.000000 -0.951057 -0.309017
v 2.000000 -0.809017 -0.587786
vt 0.250000 0.500000
vt 0.274658 0.500000
vt 0.500000 1.000000
vt 0.299805 0.500000
vt 0.500000 1.000000
vt 0.324707 0.500000
vt 0.500000 1.000000
vt 0.349854 0.500000
vt 0.500000 1.000000
vt 0.375000 0.500000
vt 0.500000 1.000000
vt 0.399658 0.500000
vt 0.500000 1.000000
vt 0.424805 0.500000
vt 0.500000 1.000000
vt 0.449707 0.500000
vt 0.500000 1.000000
vt 0.474854 0.500000
vt 0.500000 1.000000
vt 0.500000 0.500000
vt 0.500000 1.000000
vt 0.524414 0.500000
vt 0.500000 1.000000
vt 0.549805 0.500000
vt 0.500000 1.000000
vt 0.574219 0.500000
vt 0.500000 1.000000
vt 0.599121 0.500000
vt 0.500000 1.000000
vt 0.624512 0.500000
vt 0.500000 1.000000
vt 0.649414 0.500000
vt 0.500000 1.000000
vt 0.674805 0.500000
vt 0.500000 1.000000
vt 0.699219 0.500000
vt 0.500000 1.000000
vt 0.724121 0.500000
vt 0.500000 1.000000
vt 0.749512 0.500000
vt 0.500000 1.000000
vt 0.737305 0.173340
vt 0.750000 0.250000
vt 0.701660 0.104004
vt 0.737305 0.328125
vt 0.701660 0.397461
vt 0.645996 0.453125
vt 0.576660 0.487793
vt 0.500000 0.500000
vt 0.422363 0.487793
vt 0.352783 0.453125
vt 0.297363 0.397461
vt 0.261963 0.328125
vt 0.249878 0.250000
vt 0.261963 0.173340
vt 0.297363 0.104004
vt 0.352783 0.048340
vt 0.422363 0.012695
vt 0.500000 0.000000
vt 0.576660 0.012695
vt 0.645996 0.048340
vn -0.448694 -0.275514 -0.850157
vn -0.447807 -0.526369 -0.722775
vn -1.000000 0.000000 -0.000000
vn -0.447807 -0.526369 -0.722775
vn -0.447807 -0.722775 -0.526369
vn -1.000000 0.000000 -0.000000
vn -0.447807 -0.722775 -0.526369
vn -0.448694 -0.850157 -0.275514
vn -1.000000 0.000000 -0.000000
vn -0.448694 -0.850157 -0.275514
vn -0.447214 -0.894427 0.000000
vn -1.000000 0.000000 -0.000000
vn -0.447214 -0.894427 0.000000
vn -0.448694 -0.850157 0.275514
vn -1.000000 0.000000 -0.000000
vn -0.448694 -0.850157 0.275514
vn -0.447807 -0.722775 0.526369
vn -1.000000 0.000000 -0.000000
vn -0.447807 -0.722775 0.526369
vn -0.447807 -0.526369 0.722775
vn -1.000000 0.000000 -0.000000
vn -0.447807 -0.526369 0.722775
vn -0.448694 -0.275514 0.850157
vn -1.000000 0.000000 -0.000000
vn -0.448694 -0.275514 0.850157
vn -0.447214 0.000000 0.894427
vn -1.000000 0.000000 -0.000000
vn -0.447214 0.000000 0.894427
vn -0.448694 0.275514 0.850157
vn -1.000000 0.000000 -0.000000
vn -0.448694 0.275514 0.850157
vn -0.447807 0.526369 0.722775
vn -1.000000 0.000000 -0.000000
vn -0.447807 0.526369 0.722775
vn -0.447807 0.722775 0.526369
vn -1.000000 0.000000 -0.000000
vn -0.447807 0.722775 0.526369
vn -0.448694 0.850157 0.275514
vn -1.000000 0.000000 -0.000000
vn -0.448694 0.850157 0.275514
vn -0.447214 0.894427 -0.000000
vn -1.000000 0.000000 -0.000000
vn -0.447214 0.894427 -0.000000
vn -0.448694 0.850157 -0.275514
vn -1.000000 0.000000 -0.000000
vn -0.448694 0.850157 -0.275514
vn -0.447807 0.722775 -0.526369
vn -1.000000 0.000000 -0.000000
vn -0.447807 0.722775 -0.526369
vn -0.447807 0.526369 -0.722775
vn -1.000000 0.000000 -0.000000
vn -0.447807 0.526369 -0.722775
vn -0.448694 0.275514 -0.850157
vn -1.000000 0.000000 -0.000000
vn -0.448694 0.275514 -0.850157
vn -0.447214 0.000000 -0.894427
vn -1.000000 0.000000 -0.000000
vn -0.447214 0.000000 -0.894427
vn -0.448694 -0.275514 -0.850157
vn -1.000000 0.000000 -0.000000
vn 1.000000 0.000000 0.000000
vn 1.000000 0.000000 0.000000
vn 1.000000 0.000000 0.000000
vn 1.000000 0.000000 0.000000
vn 1.000000 0.000000 0.000000
vn 1.000000 0.000000 0.000000
vn 1.000000 0.000000 0.000000
vn 1.000000 0.000000 0.000000
vn 1.000000 0.000000 0.000000
vn 1.000000 0.000000 0.000000
vn 1.000000 0.000000 0.000000
vn 1.000000 0.000000 0.000000
vn 1.000000 0.000000 0.000000
vn 1.000000 0.000000 0.000000
vn 1.000000 0.000000 0.000000
vn 1.000000 0.000000 0.000000
vn 1.000000 0.000000 0.000000
vn 1.000000 0.000000 0.000000
vn 1.000000 0.000000 0.000000
vn 1.000000 0.000000 0.000000
vn 1.000000 0.000000 0.000000
vn 1.000000 0.000000 0.000000
vn 1.000000 0.000000 0.000000
vn 1.000000 0.000000 0.000000
vn 1.000000 0.000000 0.000000
vn 1.000000 0.000000 0.000000
vn 1.000000 0.000000 0.000000
vn 1.000000 0.000000 0.000000
vn 1.000000 0.000000 0.000000
vn 1.000000 0.000000 0.000000
vn 1.000000 0.000000 0.000000
vn 1.000000 0.000000 0.000000
vn 1.000000 0.000000 0.000000
vn 1.000000 0.000000 0.000000
vn 1.000000 0.000000 0.000000
vn 1.000000 0.000000 0.000000
vn 1.000000 0.000000 0.000000
vn 1.000000 0.000000 0.000000
vn 1.000000 0.000000 0.000000
vn 1.000000 0.000000 0.000000
vn 1.000000 0.000000 0.000000
vn 1.000000 0.000000 0.000000
vn 1.000000 0.000000 0.000000
vn 1.000000 0.000000 0.000000
vn 1.000000 0.000000 0.000000
vn 1.000000 0.000000 0.000000
vn 1.000000 0.000000 0.000000
vn 1.000000 0.000000 0.000000
vn 1.000000 0.000000 0.000000
vn 1.000000 0.000000 0.000000
vn 1.000000 0.000000 0.000000
vn 1.000000 0.000000 0.000000
vn 1.000000 0.000000 0.000000
vn 1.000000 0.000000 0.000000
s off
g initialShadingGroup Mesh
f 1/1/1 2/2/2 3/3/3
f 2/2/4 4/4/5 5/5/6
f 4/4/7 6/6/8 7/7/9
f 6/6/10 8/8/11 9/9/12
f 8/8/13 10/10/14 11/11/15
f 10/10/16 12/12/17 13/13/18
f 12/12/19 14/14/20 15/15/21
f 14/14/22 16/16/23 17/17/24
f 16/16/25 18/18/26 19/19/27
f 18/18/28 20/20/29 21/21/30
f 20/20/31 22/22/32 23/23/33
f 22/22/34 24/24/35 25/25/36
f 24/24/37 26/26/38 27/27/39
f 26/26/40 28/28/41 29/29/42
f 28/28/43 30/30/44 31/31/45
f 30/30/46 32/32/47 33/33/48
f 32/32/49 34/34/50 35/35/51
f 34/34/52 36/36/53 37/37/54
f 36/36/55 38/38/56 39/39/57
f 38/38/58 40/40/59 41/41/60
f 42/42/61 43/43/62 44/44/63
f 43/43/64 45/45/65 44/44/66
f 45/45/67 46/46/68 44/44/69
f 46/46/70 47/47/71 44/44/72
f 47/47/73 48/48/74 44/44/75
f 48/48/76 49/49/77 44/44/78
f 49/49/79 50/50/80 44/44/81
f 50/50/82 51/51/83 44/44/84
f 51/51/85 52/52/86 44/44/87
f 52/52/88 53/53/89 44/44/90
f 53/53/91 54/54/92 44/44/93
f 54/54/94 55/55/95 44/44/96
f 55/55/97 56/56/98 44/44/99
f 56/56/100 57/57/101 44/44/102
f 57/57/103 58/58/104 44/44/105
f 58/58/106 59/59/107 44/44/108
f 59/59/109 60/60/110 44/44/111
f 60/60/112 61/61/113 44/44/114
