# UnrealEd OBJ exporter (_Internal)



v -39.470798 49.276287 19.975967

v -39.203495 49.955647 19.126602

v -39.821648 47.574070 17.154823

v -39.821648 47.574070 17.154823

v -39.976891 47.000462 18.104179

v -39.470798 49.276287 19.975967

v -32.957634 21.193691 11.049992

v -35.501431 32.932484 12.857584

v -35.410667 33.361813 10.241313

v -35.410667 33.361813 10.241313

v -32.886127 22.612797 7.215290

v -32.957634 21.193691 11.049992

v -35.501431 32.932484 12.857584

v -39.976891 47.000462 18.104179

v -39.821648 47.574070 17.154823

v -39.821648 47.574070 17.154823

v -35.410667 33.361813 10.241313

v -35.501431 32.932484 12.857584

v -121.089867 73.466095 26.986748

v -96.360756 71.827774 26.504869

v -96.404663 71.252228 27.464670

v -121.265472 72.671509 27.756294

v -108.921654 27.582798 7.333127

v -108.877525 27.796368 6.807797

v -111.942497 39.182812 10.705646

v -111.963715 39.053623 11.191958

v -116.916054 57.659733 18.344126

v -116.886147 57.614918 18.739786

v -121.137398 73.342163 26.617493

v -121.089867 73.466095 26.986748

v -96.404663 71.252228 27.464670

v -96.360756 71.827774 26.504869

v -72.544090 68.232971 25.829105

v -72.620094 67.652695 26.784039

v -62.741562 66.001846 25.472992

v -62.855827 65.424957 26.426170

v -62.855827 65.424957 26.426170

v -62.741562 66.001846 25.472992

v -57.041840 62.525364 24.196360

v -57.222160 61.913059 25.116671

v -39.203495 49.955647 19.126602

v -39.470798 49.276287 19.975967

v -112.718834 38.728313 11.986140

v -109.952377 26.999157 8.337345

v -108.921654 27.582798 7.333119

v -111.963715 39.053623 11.191958

v -117.625916 57.149891 19.657837

v -116.886147 57.614918 18.739786

v -121.265472 72.671509 27.756294

v -121.089867 73.466095 26.986748

v -108.877525 27.796368 6.807797

v -108.921654 27.582798 7.333127

v -90.101311 26.417019 7.305485

v -90.035675 26.587513 6.790295

v -63.424911 25.117496 7.274673

v -63.337769 25.240131 6.770789

v -32.802078 22.646214 6.733226

v -32.886127 22.612804 7.215290

v -116.886147 57.614918 18.739786

v -121.089867 73.466095 26.986748

v -96.360756 71.827774 26.504869

v -94.672470 55.572514 18.595385

v -72.544090 68.232971 25.829105

v -111.963715 39.053623 11.191958

v -67.050545 52.296345 18.085707

v -62.741562 66.001846 25.472992

v -92.191277 38.622227 11.700648

v -108.921654 27.582798 7.333127

v -57.041840 62.525364 24.196360

v -90.101311 26.417019 7.305485

v -39.821648 47.574070 17.154823

v -39.203495 49.955647 19.126602

v -64.280426 35.929806 11.330825

v -35.410667 33.361813 10.241313

v -63.424911 25.117496 7.274673

v -32.886127 22.612804 7.215290

v -96.382713 71.539993 26.984766

v -121.177666 73.068802 27.371521

v -117.256035 57.382404 19.198809

v -94.709930 55.111088 19.615229

v -112.341278 38.890980 11.589046

v -72.582092 67.942841 26.306576

v -92.220345 38.218334 12.744884

v -109.437019 27.290981 7.323147

v -90.123268 26.032604 7.845135

v -67.097473 51.823185 19.099768

v -62.798683 65.713394 25.949585

v -57.132000 62.219212 24.656511

v -64.299004 35.511990 12.369811

v -63.433987 24.549763 7.814750

v -39.899273 47.287266 17.629509

v -39.337147 49.615963 19.551285

v -35.456047 33.147152 11.549457

v -32.670033 22.070065 7.761783



vt -0.478760 -0.218750

vt -0.486816 -0.210938

vt -0.505371 -0.235352

vt -0.505371 -0.235352

vt -0.496094 -0.239258

vt -0.478760 -0.218750

vt -0.548340 -0.496094

vt -0.525879 -0.383789

vt -0.551758 -0.380859

vt -0.551758 -0.380859

vt -0.582520 -0.482422

vt -0.548340 -0.496094

vt -0.525879 -0.383789

vt -0.496094 -0.239258

vt -0.505371 -0.235352

vt -0.505371 -0.235352

vt -0.551758 -0.380859

vt -0.525879 -0.383789

vt -1.120117 0.203613

vt -0.895508 0.149902

vt -0.892090 0.159668

vt -1.118164 0.213867

vt -1.309570 -0.411133

vt -1.304688 -0.411133

vt -1.286133 -0.296875

vt -1.291016 -0.294922

vt -1.256836 -0.105469

vt -1.259766 -0.104492

vt -1.232422 0.063477

vt -1.235352 0.065918

vt -0.892090 0.159668

vt -0.895508 0.149902

vt -0.691406 0.058594

vt -0.686523 0.067871

vt -0.611328 0.010742

vt -0.606934 0.020020

vt -0.606934 0.020020

vt -0.616211 0.015625

vt -0.583984 -0.038086

vt -0.574707 -0.033203

vt -0.487549 -0.223633

vt -0.478760 -0.218750

vt -1.097656 -0.279297

vt -1.074219 -0.395508

vt -1.059570 -0.392578

vt -1.086914 -0.278320

vt -1.139648 -0.090820

vt -1.127930 -0.089844

vt -1.168945 0.073730

vt -1.160156 0.078125

vt -1.819336 1.443359

vt -1.819336 1.447021

vt -1.978516 1.446289

vt -1.978516 1.441650

vt -2.203125 1.445068

vt -2.205078 1.440186

vt -2.462891 1.425049

vt -2.462891 1.429199

vt 0.330078 1.054443

vt 0.350830 1.164307

vt 0.201416 1.147217

vt 0.195679 1.037018

vt 0.059631 1.119995

vt 0.304688 0.931824

vt 0.029938 1.011192

vt 0.002628 1.105408

vt 0.184570 0.926147

vt 0.288574 0.857666

vt -0.030319 1.082703

vt 0.174438 0.847046

vt -0.135254 0.980179

vt -0.140137 1.003088

vt 0.016205 0.904541

vt -0.158813 0.880798

vt 0.013405 0.834595

vt -0.171875 0.812622

vt 0.201416 1.147217

vt 0.350830 1.164307

vt 0.330078 1.054443

vt 0.195679 1.037018

vt 0.304688 0.931824

vt 0.059631 1.119995

vt 0.184570 0.926147

vt 0.288574 0.857666

vt 0.174438 0.847046

vt 0.029938 1.011192

vt 0.002628 1.105408

vt -0.030319 1.082703

vt 0.016205 0.904541

vt 0.013405 0.834595

vt -0.135254 0.980179

vt -0.140137 1.003088

vt -0.158813 0.880798

vt -0.171875 0.812622



vn -0.952756 0.299213 -0.062992

vn -0.952756 0.299213 -0.062992

vn -0.952756 0.299213 -0.062992

vn -0.976378 0.228346 -0.015748

vn -0.976378 0.228346 -0.015748

vn -0.976378 0.228346 -0.015748

vn -0.976378 -0.204724 -0.070866

vn -0.976378 -0.204724 -0.070866

vn -0.976378 -0.204724 -0.070866

vn -0.976378 -0.204724 -0.094488

vn -0.976378 -0.204724 -0.094488

vn -0.976378 -0.204724 -0.094488

vn -0.944882 -0.196850 -0.275591

vn -0.944882 -0.196850 -0.275591

vn -0.944882 -0.196850 -0.275591

vn -0.960630 -0.259843 -0.078740

vn -0.960630 -0.259843 -0.078740

vn -0.960630 -0.259843 -0.078740

vn -0.047244 -0.692913 -0.716535

vn -0.062992 -0.858268 -0.511811

vn -0.062992 -0.850394 -0.519685

vn -0.070866 -0.952756 0.291339

vn 0.968504 0.204724 0.165354

vn 0.968504 0.204724 0.165354

vn 0.968504 0.220472 0.102362

vn 0.968504 0.220472 0.102362

vn 0.960630 0.275591 -0.039370

vn 0.960630 0.275591 -0.039370

vn 0.905512 0.362205 -0.236220

vn 0.897638 0.362205 -0.236220

vn -0.141732 -0.842520 -0.511811

vn -0.141732 -0.842520 -0.511811

vn -0.173228 -0.834646 -0.519685

vn -0.173228 -0.834646 -0.519685

vn -0.377953 -0.771654 -0.511811

vn -0.377953 -0.771654 -0.511811

vn -0.377953 -0.771654 -0.511811

vn -0.377953 -0.771654 -0.511811

vn -0.559055 -0.637795 -0.527559

vn -0.559055 -0.637795 -0.535433

vn -0.566929 -0.551181 -0.614173

vn -0.566929 -0.543307 -0.614173

vn 0.732283 -0.062992 0.677165

vn 0.708661 -0.047244 0.700787

vn 0.708661 -0.047244 0.700787

vn 0.732283 -0.055118 0.677165

vn 0.795276 -0.078740 0.598425

vn 0.795276 -0.070866 0.598425

vn 0.425197 -0.488189 0.763780

vn 0.944882 0.086614 0.307087

vn 0.055118 0.921260 0.377953

vn 0.055118 0.921260 0.377953

vn 0.055118 0.944882 0.322835

vn 0.055118 0.944882 0.322835

vn 0.062992 0.968504 0.244094

vn 0.070866 0.968504 0.244094

vn 0.070866 0.992126 0.078740

vn 0.078740 0.992126 0.078740

vn 0.023622 0.425197 -0.905512

vn 0.023622 0.598425 -0.803150

vn 0.039370 0.511811 -0.858268

vn 0.031496 0.409449 -0.913386

vn 0.070866 0.519685 -0.850394

vn 0.031496 0.362205 -0.929134

vn 0.039370 0.425197 -0.905512

vn 0.102362 0.511811 -0.850394

vn 0.023622 0.362205 -0.929134

vn 0.023622 0.330709 -0.944882

vn 0.157480 0.543307 -0.818898

vn 0.015748 0.346457 -0.937008

vn 0.141732 0.511811 -0.850394

vn 0.236220 0.606299 -0.755906

vn 0.015748 0.370079 -0.929134

vn 0.078740 0.385827 -0.921260

vn 0.007874 0.346457 -0.937008

vn 0.062992 0.322835 -0.944882

vn -0.039370 -0.425197 0.905512

vn -0.015748 -0.464567 0.881890

vn -0.039370 -0.425197 0.905512

vn -0.047244 -0.401575 0.913386

vn -0.062992 -0.377953 0.921260

vn -0.047244 -0.417323 0.905512

vn -0.039370 -0.377953 0.921260

vn -0.062992 -0.370079 0.929134

vn -0.031496 -0.377953 0.921260

vn -0.031496 -0.409449 0.913386

vn -0.062992 -0.425197 0.905512

vn -0.047244 -0.448819 0.889764

vn -0.015748 -0.385827 0.921260

vn -0.015748 -0.377953 0.929134

vn -0.062992 -0.464567 0.881890

vn -0.196850 -0.598425 0.779528

vn -0.015748 -0.362205 0.929134

vn -0.023622 -0.330709 0.944882

f 1/1/1 2/2/2 3/3/3

f 4/4/4 5/5/5 6/6/6

f 7/7/7 8/8/8 9/9/9

f 10/10/10 11/11/11 12/12/12

f 13/13/13 14/14/14 15/15/15

f 16/16/16 17/17/17 18/18/18

f 19/19/19 20/20/20 21/21/21

f 21/21/21 22/22/22 19/19/19

f 23/23/23 24/24/24 25/25/25

f 25/25/25 26/26/26 23/23/23

f 26/26/26 25/25/25 27/27/27

f 27/27/27 28/28/28 26/26/26

f 28/28/28 27/27/27 29/29/29

f 29/29/29 30/30/30 28/28/28

f 31/31/31 32/32/32 33/33/33

f 33/33/33 34/34/34 31/31/31

f 34/34/34 33/33/33 35/35/35

f 35/35/35 36/36/36 34/34/34

f 37/37/37 38/38/38 39/39/39

f 39/39/39 40/40/40 37/37/37

f 40/40/40 39/39/39 41/41/41

f 41/41/41 42/42/42 40/40/40

f 43/43/43 44/44/44 45/45/45

f 45/45/45 46/46/46 43/43/43

f 47/47/47 43/43/43 46/46/46

f 46/46/46 48/48/48 47/47/47

f 49/49/49 47/47/47 48/48/48

f 48/48/48 50/50/50 49/49/49

f 51/51/51 52/52/52 53/53/53

f 53/53/53 54/54/54 51/51/51

f 54/54/54 53/53/53 55/55/55

f 55/55/55 56/56/56 54/54/54

f 57/57/57 56/56/56 55/55/55

f 55/55/55 58/58/58 57/57/57

f 59/59/59 60/60/60 61/61/61

f 61/61/61 62/62/62 59/59/59

f 62/62/62 61/61/61 63/63/63

f 64/64/64 59/59/59 62/62/62

f 63/63/63 65/65/65 62/62/62

f 65/65/65 63/63/63 66/66/66

f 62/62/62 67/67/67 64/64/64

f 67/67/67 62/62/62 65/65/65

f 68/68/68 64/64/64 67/67/67

f 65/65/65 66/66/66 69/69/69

f 67/67/67 70/70/70 68/68/68

f 71/71/71 65/65/65 69/69/69

f 69/69/69 72/72/72 71/71/71

f 65/65/65 73/73/73 67/67/67

f 73/73/73 65/65/65 71/71/71

f 70/70/70 67/67/67 73/73/73

f 71/71/71 74/74/74 73/73/73

f 73/73/73 75/75/75 70/70/70

f 75/75/75 73/73/73 74/74/74

f 74/74/74 76/76/76 75/75/75

f 77/77/77 78/78/78 79/79/79

f 79/79/79 80/80/80 77/77/77

f 80/80/80 79/79/79 81/81/81

f 82/82/82 77/77/77 80/80/80

f 81/81/81 83/83/83 80/80/80

f 83/83/83 81/81/81 84/84/84

f 84/84/84 85/85/85 83/83/83

f 80/80/80 86/86/86 82/82/82

f 86/86/86 80/80/80 83/83/83

f 87/87/87 82/82/82 86/86/86

f 88/88/88 87/87/87 86/86/86

f 89/89/89 83/83/83 85/85/85

f 83/83/83 89/89/89 86/86/86

f 85/85/85 90/90/90 89/89/89

f 88/88/88 86/86/86 91/91/91

f 91/91/91 86/86/86 89/89/89

f 91/91/91 92/92/92 88/88/88

f 89/89/89 93/93/93 91/91/91

f 93/93/93 89/89/89 90/90/90

f 90/90/90 94/94/94 93/93/93

