# UnrealEd OBJ exporter (_Internal)



v 169.810318 96.412659 -97.453079

v 169.595673 97.858574 -97.258591

v 170.065887 101.031563 -95.861031

v 170.578125 95.376732 -97.493469

v 177.796844 94.715729 -95.945625

v 173.417999 101.175133 -92.757103

v 178.283524 101.318710 -89.786880

v 182.949692 93.905876 -92.890518

v 179.202026 94.032570 -95.625252

v 189.560730 100.547966 -79.022400

v 185.565262 87.304832 -93.881264

v 193.753799 93.227066 -84.945068

v 196.382614 85.906181 -87.788795

v 204.151505 84.333771 -73.856499

v 202.432236 91.989838 -70.479599

v 198.929138 99.777229 -67.119987

v 200.391235 98.626762 -64.201820

v 201.774414 96.756882 -61.812321

v 209.765732 83.251762 -61.091530

v 205.284012 91.637459 -61.642193

v 205.245758 91.498932 -59.047619

v 210.329422 83.207214 -58.971298

v 210.362701 83.399521 -58.274433

v 210.284683 83.880753 -57.734516

v 170.065826 101.031563 95.861168

v 169.595612 97.858574 97.258728

v 169.810257 96.412659 97.453217

v 170.578064 95.376724 97.493607

v 177.796783 94.715729 95.945763

v 173.417938 101.175125 92.757240

v 178.283463 101.318710 89.787018

v 182.949631 93.905869 92.890656

v 179.201965 94.032570 95.625389

v 189.560669 100.547966 79.022552

v 185.565201 87.304825 93.881416

v 193.753738 93.227066 84.945221

v 196.382553 85.906181 87.788948

v 204.151443 84.333771 73.856651

v 202.432175 91.989838 70.479752

v 198.929077 99.777229 67.120140

v 200.391174 98.626762 64.201973

v 209.765671 83.251762 61.091690

v 201.774353 96.756882 61.812481

v 205.283951 91.637451 61.642353

v 205.245697 91.498932 59.047779

v 210.329361 83.207214 58.971466

v 210.362671 83.399521 58.274601

v 210.284653 83.880753 57.734684



vt -3.187500 1.422852

vt -3.175781 1.428711

vt -3.175781 1.444580

vt -3.197266 1.417725

vt -3.234375 1.430664

vt -3.197266 1.458252

vt -3.220703 1.473877

vt -3.265625 1.442383

vt -3.242188 1.430664

vt -3.294922 1.520020

vt -3.296875 1.418945

vt -3.328125 1.480469

vt -3.361328 1.451660

vt -3.439453 1.509766

vt -3.400391 1.534180

vt -3.359375 1.567871

vt -3.378906 1.576660

vt -3.400391 1.581543

vt -3.498047 1.548340

vt -3.435547 1.567383

vt -3.439453 1.578125

vt -3.503906 1.559082

vt -3.496094 1.563965

vt -3.498047 1.570313

vt -3.175781 1.444580

vt -3.175781 1.428711

vt -3.187500 1.422852

vt -3.197266 1.417725

vt -3.234375 1.430664

vt -3.197266 1.458252

vt -3.220703 1.473877

vt -3.265625 1.442383

vt -3.242188 1.430664

vt -3.294922 1.520020

vt -3.296875 1.418945

vt -3.328125 1.480469

vt -3.361328 1.451660

vt -3.439453 1.509766

vt -3.400391 1.534180

vt -3.359375 1.567871

vt -3.378906 1.576660

vt -3.498047 1.548340

vt -3.400391 1.581543

vt -3.435547 1.567383

vt -3.439453 1.578125

vt -3.503906 1.559082

vt -3.496094 1.563965

vt -3.498047 1.570313



vn 0.385827 0.283465 -0.881890

vn 0.700787 0.196850 -0.685039

vn 0.417323 0.464567 -0.779528

vn 0.259843 0.291339 -0.921260

vn 0.425197 0.559055 -0.708661

vn 0.464567 0.622047 -0.629921

vn 0.496063 0.598425 -0.629921

vn 0.543307 0.488189 -0.685039

vn 0.488189 0.590551 -0.645669

vn 0.598425 0.645669 -0.472441

vn 0.543307 0.370079 -0.748031

vn 0.629921 0.559055 -0.543307

vn 0.669291 0.464567 -0.582677

vn 0.834646 0.377953 -0.401575

vn 0.811024 0.464567 -0.362205

vn 0.771654 0.511811 -0.377953

vn 0.866142 0.456693 -0.196850

vn 0.850394 0.503937 -0.173228

vn 0.858268 0.464567 -0.228346

vn 0.850394 0.511811 -0.110236

vn 0.858268 0.519685 0.007874

vn 0.834646 0.511811 -0.196850

vn 0.834646 0.503937 -0.228346

vn 0.818898 0.488189 -0.314961

vn 0.417323 0.464567 0.779528

vn 0.700787 0.196850 0.685039

vn 0.385827 0.283465 0.881890

vn 0.259843 0.291339 0.921260

vn 0.425197 0.559055 0.708661

vn 0.464567 0.622047 0.629921

vn 0.496063 0.598425 0.629921

vn 0.543307 0.488189 0.685039

vn 0.488189 0.590551 0.645669

vn 0.598425 0.645669 0.472441

vn 0.543307 0.370079 0.748031

vn 0.629921 0.559055 0.543307

vn 0.669291 0.464567 0.582677

vn 0.834646 0.377953 0.401575

vn 0.811024 0.464567 0.362205

vn 0.771654 0.511811 0.377953

vn 0.866142 0.456693 0.196850

vn 0.858268 0.464567 0.228346

vn 0.850394 0.503937 0.173228

vn 0.850394 0.511811 0.110236

vn 0.858268 0.519685 -0.007874

vn 0.834646 0.511811 0.196850

vn 0.834646 0.503937 0.228346

vn 0.818898 0.488189 0.314961

f 1/1/1 2/2/2 3/3/3

f 3/3/3 4/4/4 1/1/1

f 5/5/5 4/4/4 3/3/3

f 3/3/3 6/6/6 5/5/5

f 5/5/5 6/6/6 7/7/7

f 8/8/8 5/5/5 7/7/7

f 8/8/8 9/9/9 5/5/5

f 8/8/8 7/7/7 10/10/10

f 8/8/8 11/11/11 9/9/9

f 11/11/11 8/8/8 12/12/12

f 10/10/10 12/12/12 8/8/8

f 12/12/12 13/13/13 11/11/11

f 14/14/14 13/13/13 12/12/12

f 15/15/15 12/12/12 10/10/10

f 12/12/12 15/15/15 14/14/14

f 10/10/10 16/16/16 15/15/15

f 15/15/15 16/16/16 17/17/17

f 15/15/15 17/17/17 18/18/18

f 19/19/19 14/14/14 15/15/15

f 18/18/18 20/20/20 15/15/15

f 15/15/15 20/20/20 19/19/19

f 18/18/18 21/21/21 20/20/20

f 19/19/19 20/20/20 21/21/21

f 21/21/21 22/22/22 19/19/19

f 21/21/21 23/23/23 22/22/22

f 21/21/21 24/24/24 23/23/23

f 25/25/25 26/26/26 27/27/27

f 27/27/27 28/28/28 25/25/25

f 25/25/25 28/28/28 29/29/29

f 29/29/29 30/30/30 25/25/25

f 29/29/29 31/31/31 30/30/30

f 29/29/29 32/32/32 31/31/31

f 29/29/29 33/33/33 32/32/32

f 34/34/34 31/31/31 32/32/32

f 32/32/32 33/33/33 35/35/35

f 36/36/36 32/32/32 35/35/35

f 32/32/32 36/36/36 34/34/34

f 35/35/35 37/37/37 36/36/36

f 36/36/36 37/37/37 38/38/38

f 34/34/34 36/36/36 39/39/39

f 38/38/38 39/39/39 36/36/36

f 39/39/39 40/40/40 34/34/34

f 39/39/39 41/41/41 40/40/40

f 39/39/39 38/38/38 42/42/42

f 43/43/43 41/41/41 39/39/39

f 39/39/39 44/44/44 43/43/43

f 42/42/42 44/44/44 39/39/39

f 43/43/43 44/44/44 45/45/45

f 45/45/45 44/44/44 42/42/42

f 42/42/42 46/46/46 45/45/45

f 45/45/45 46/46/46 47/47/47

f 45/45/45 47/47/47 48/48/48

