# UnrealEd OBJ exporter (_Internal)



v -39.838863 44.730999 -20.173637

v -40.344955 42.455181 -18.301849

v -40.189713 43.028790 -17.352493

v -40.189713 43.028790 -17.352493

v -39.571560 45.410366 -19.324272

v -39.838863 44.730999 -20.173637

v -33.325706 16.648403 -11.247654

v -33.254200 18.067516 -7.412953

v -35.778740 28.816525 -10.438977

v -35.778740 28.816525 -10.438977

v -35.869503 28.387203 -13.055250

v -33.325706 16.648403 -11.247654

v -35.869503 28.387203 -13.055250

v -35.778740 28.816525 -10.438977

v -40.189713 43.028790 -17.352493

v -40.189713 43.028790 -17.352493

v -40.344955 42.455181 -18.301849

v -35.869503 28.387203 -13.055250

v -121.457924 68.920807 -27.184479

v -121.633537 68.126221 -27.954025

v -96.772720 66.706955 -27.662382

v -96.728813 67.282501 -26.702581

v -109.289734 23.037518 -7.530841

v -110.320450 22.453869 -8.535069

v -113.086906 34.183025 -12.183866

v -112.331779 34.508343 -11.389684

v -117.993988 52.604610 -19.855568

v -117.254219 53.069637 -18.937513

v -121.633537 68.126221 -27.954025

v -121.457924 68.920807 -27.184479

v -112.310570 34.637524 -10.903371

v -109.245598 23.251080 -7.005519

v -109.289734 23.037518 -7.530849

v -112.331779 34.508343 -11.389684

v -117.284126 53.114452 -18.541853

v -117.254219 53.069637 -18.937513

v -121.505455 68.796890 -26.815224

v -121.457924 68.920807 -27.184479

v -72.912155 63.687695 -26.026798

v -96.728813 67.282501 -26.702581

v -96.772720 66.706955 -27.662382

v -72.988159 63.107403 -26.981731

v -63.109623 61.456570 -25.670677

v -63.223885 60.879681 -26.623856

v -57.409904 57.980083 -24.394041

v -63.109623 61.456570 -25.670677

v -63.223885 60.879681 -26.623856

v -57.590225 57.367779 -25.314352

v -39.571560 45.410366 -19.324272

v -39.838863 44.730999 -20.173637

v -90.469391 21.871731 -7.503193

v -109.289734 23.037518 -7.530849

v -109.245598 23.251080 -7.005519

v -90.403755 22.042233 -6.988003

v -63.792984 20.572216 -7.472360

v -63.705845 20.694851 -6.968476

v -33.170151 18.100933 -6.930890

v -33.254200 18.067516 -7.412953

v -96.728813 67.282501 -26.702581

v -121.457924 68.920807 -27.184479

v -117.254219 53.069637 -18.937513

v -95.040543 51.027233 -18.793097

v -112.331779 34.508343 -11.389684

v -72.912155 63.687695 -26.026798

v -92.559349 34.076946 -11.898358

v -109.289734 23.037518 -7.530849

v -90.469391 21.871731 -7.503193

v -67.418617 47.751064 -18.283396

v -63.109623 61.456570 -25.670677

v -57.409904 57.980083 -24.394041

v -64.648499 31.384518 -11.528512

v -63.792984 20.572216 -7.472360

v -40.189713 43.028790 -17.352493

v -39.571560 45.410366 -19.324272

v -35.778740 28.816525 -10.438977

v -33.254200 18.067516 -7.412953



vt -0.478760 -0.218750

vt -0.496094 -0.239258

vt -0.505371 -0.235352

vt -0.505371 -0.235352

vt -0.486816 -0.210938

vt -0.478760 -0.218750

vt -0.548340 -0.496094

vt -0.582520 -0.482422

vt -0.551758 -0.380859

vt -0.551758 -0.380859

vt -0.525879 -0.383789

vt -0.548340 -0.496094

vt -0.525879 -0.383789

vt -0.551758 -0.380859

vt -0.505371 -0.235352

vt -0.505371 -0.235352

vt -0.496094 -0.239258

vt -0.525879 -0.383789

vt -1.120117 0.203613

vt -1.118164 0.213867

vt -0.892090 0.159668

vt -0.895508 0.149902

vt -1.059570 -0.392578

vt -1.074219 -0.395508

vt -1.097656 -0.279297

vt -1.086914 -0.278320

vt -1.139648 -0.090820

vt -1.127930 -0.089844

vt -1.168945 0.073730

vt -1.160156 0.078125

vt -1.286133 -0.296875

vt -1.304688 -0.411133

vt -1.309570 -0.411133

vt -1.291016 -0.294922

vt -1.256836 -0.105469

vt -1.259766 -0.104492

vt -1.232422 0.063477

vt -1.235352 0.065918

vt -0.691406 0.058594

vt -0.895508 0.149902

vt -0.892090 0.159668

vt -0.686523 0.067871

vt -0.611328 0.010742

vt -0.606934 0.020020

vt -0.583984 -0.038086

vt -0.616211 0.015625

vt -0.606934 0.020020

vt -0.574707 -0.033203

vt -0.487549 -0.223633

vt -0.478760 -0.218750

vt -1.978516 1.446289

vt -1.819336 1.447021

vt -1.819336 1.443359

vt -1.978516 1.441650

vt -2.203125 1.445068

vt -2.205078 1.440186

vt -2.462891 1.425049

vt -2.462891 1.429199

vt 0.201416 1.147217

vt 0.350830 1.164307

vt 0.330078 1.054443

vt 0.195679 1.037018

vt 0.304688 0.931824

vt 0.059631 1.119995

vt 0.184570 0.926147

vt 0.288574 0.857666

vt 0.174438 0.847046

vt 0.029938 1.011192

vt 0.002628 1.105408

vt -0.030319 1.082703

vt 0.016205 0.904541

vt 0.013405 0.834595

vt -0.135254 0.980179

vt -0.140137 1.003088

vt -0.158813 0.880798

vt -0.171875 0.812622



vn -0.976378 0.228346 0.015748

vn -0.976378 0.228346 0.015748

vn -0.976378 0.228346 0.015748

vn -0.952756 0.299213 0.062992

vn -0.952756 0.299213 0.062992

vn -0.952756 0.299213 0.062992

vn -0.976378 -0.204724 0.094488

vn -0.976378 -0.204724 0.094488

vn -0.976378 -0.204724 0.094488

vn -0.976378 -0.204724 0.070866

vn -0.976378 -0.204724 0.070866

vn -0.976378 -0.204724 0.070866

vn -0.960630 -0.259843 0.078740

vn -0.960630 -0.259843 0.078740

vn -0.960630 -0.259843 0.078740

vn -0.944882 -0.196850 0.275591

vn -0.944882 -0.196850 0.275591

vn -0.944882 -0.196850 0.275591

vn -0.047244 -0.692913 0.716535

vn -0.070866 -0.952756 -0.291339

vn -0.062992 -0.850394 0.519685

vn -0.062992 -0.858268 0.511811

vn 0.708661 -0.047244 -0.700787

vn 0.708661 -0.047244 -0.700787

vn 0.732283 -0.062992 -0.677165

vn 0.732283 -0.055118 -0.677165

vn 0.795276 -0.078740 -0.598425

vn 0.795276 -0.070866 -0.598425

vn 0.425197 -0.488189 -0.763780

vn 0.944882 0.086614 -0.307087

vn 0.968504 0.220472 -0.102362

vn 0.968504 0.204724 -0.165354

vn 0.968504 0.204724 -0.165354

vn 0.968504 0.220472 -0.102362

vn 0.960630 0.275591 0.039370

vn 0.960630 0.275591 0.039370

vn 0.905512 0.362205 0.236220

vn 0.897638 0.362205 0.236220

vn -0.173228 -0.834646 0.519685

vn -0.141732 -0.842520 0.511811

vn -0.141732 -0.842520 0.511811

vn -0.173228 -0.834646 0.519685

vn -0.377953 -0.771654 0.511811

vn -0.377953 -0.771654 0.511811

vn -0.559055 -0.637795 0.527559

vn -0.377953 -0.771654 0.511811

vn -0.377953 -0.771654 0.511811

vn -0.559055 -0.637795 0.535433

vn -0.566929 -0.551181 0.614173

vn -0.566929 -0.543307 0.614173

vn 0.055118 0.944882 -0.322835

vn 0.055118 0.921260 -0.377953

vn 0.055118 0.921260 -0.377953

vn 0.055118 0.944882 -0.322835

vn 0.062992 0.968504 -0.244094

vn 0.070866 0.968504 -0.244094

vn 0.070866 0.992126 -0.078740

vn 0.078740 0.992126 -0.078740

vn 0.039370 0.511811 0.858268

vn 0.023622 0.598425 0.803150

vn 0.023622 0.425197 0.905512

vn 0.031496 0.409449 0.913386

vn 0.031496 0.362205 0.929134

vn 0.070866 0.519685 0.850394

vn 0.023622 0.362205 0.929134

vn 0.023622 0.330709 0.944882

vn 0.015748 0.346457 0.937008

vn 0.039370 0.425197 0.905512

vn 0.102362 0.511811 0.850394

vn 0.157480 0.543307 0.818898

vn 0.015748 0.370079 0.929134

vn 0.007874 0.346457 0.937008

vn 0.141732 0.511811 0.850394

vn 0.236220 0.606299 0.755906

vn 0.078740 0.385827 0.921260

vn 0.062992 0.322835 0.944882

f 1/1/1 2/2/2 3/3/3

f 4/4/4 5/5/5 6/6/6

f 7/7/7 8/8/8 9/9/9

f 10/10/10 11/11/11 12/12/12

f 13/13/13 14/14/14 15/15/15

f 16/16/16 17/17/17 18/18/18

f 19/19/19 20/20/20 21/21/21

f 21/21/21 22/22/22 19/19/19

f 23/23/23 24/24/24 25/25/25

f 25/25/25 26/26/26 23/23/23

f 26/26/26 25/25/25 27/27/27

f 27/27/27 28/28/28 26/26/26

f 28/28/28 27/27/27 29/29/29

f 29/29/29 30/30/30 28/28/28

f 31/31/31 32/32/32 33/33/33

f 33/33/33 34/34/34 31/31/31

f 35/35/35 31/31/31 34/34/34

f 34/34/34 36/36/36 35/35/35

f 37/37/37 35/35/35 36/36/36

f 36/36/36 38/38/38 37/37/37

f 39/39/39 40/40/40 41/41/41

f 41/41/41 42/42/42 39/39/39

f 43/43/43 39/39/39 42/42/42

f 42/42/42 44/44/44 43/43/43

f 45/45/45 46/46/46 47/47/47

f 47/47/47 48/48/48 45/45/45

f 49/49/49 45/45/45 48/48/48

f 48/48/48 50/50/50 49/49/49

f 51/51/51 52/52/52 53/53/53

f 53/53/53 54/54/54 51/51/51

f 55/55/55 51/51/51 54/54/54

f 54/54/54 56/56/56 55/55/55

f 55/55/55 56/56/56 57/57/57

f 57/57/57 58/58/58 55/55/55

f 59/59/59 60/60/60 61/61/61

f 61/61/61 62/62/62 59/59/59

f 62/62/62 61/61/61 63/63/63

f 64/64/64 59/59/59 62/62/62

f 63/63/63 65/65/65 62/62/62

f 65/65/65 63/63/63 66/66/66

f 66/66/66 67/67/67 65/65/65

f 62/62/62 68/68/68 64/64/64

f 68/68/68 62/62/62 65/65/65

f 68/68/68 69/69/69 64/64/64

f 68/68/68 70/70/70 69/69/69

f 71/71/71 65/65/65 67/67/67

f 65/65/65 71/71/71 68/68/68

f 67/67/67 72/72/72 71/71/71

f 70/70/70 68/68/68 73/73/73

f 73/73/73 68/68/68 71/71/71

f 73/73/73 74/74/74 70/70/70

f 71/71/71 75/75/75 73/73/73

f 75/75/75 71/71/71 72/72/72

f 72/72/72 76/76/76 75/75/75

