# UnrealEd OBJ exporter (_Internal)



v -221.215134 117.911575 -77.526421

v -221.548706 117.676994 -77.151306

v -219.807037 117.179008 -76.221237

v -221.215195 117.911575 77.526253

v -219.807098 117.179001 76.221069

v -221.548767 117.676987 77.151138

v -228.046997 106.341148 66.738998

v -228.194763 102.144272 66.636940

v -227.048889 100.483284 76.252754

v -227.324066 105.554916 77.079926

v -225.133652 99.981781 83.191879

v -226.662994 114.635971 68.261597

v -223.398163 105.463181 83.584518

v -220.842422 99.480255 90.130974

v -225.631989 112.525253 77.107635

v -221.548767 117.676987 77.151138

v -224.351273 117.957787 69.608765

v -221.215195 117.911575 77.526253

v -221.169220 112.215134 82.886467

v -217.415588 118.090408 81.471626

v -219.472275 105.371437 90.089104

v -211.970505 99.699799 95.811951

v -216.706467 111.905014 88.665291

v -211.657730 118.269226 85.666512

v -210.798538 105.352127 94.456520

v -202.316544 99.919350 99.830849

v -208.834442 111.978943 92.397247

v -205.762772 118.116669 89.729164

v -202.124802 105.332817 98.823944

v -200.962418 112.052872 96.129204

v -198.862228 117.964127 92.102119

v -188.740356 117.630371 93.516548

v -194.425720 104.136612 100.461052

v -193.764877 102.675415 100.726883

v -192.171890 103.786438 100.940300

v -193.423004 111.717941 97.826622

v -188.570847 111.502396 98.919037

v -179.452438 117.337036 95.262482

v -179.382217 115.991318 96.647430

v -180.504745 114.645569 98.032410

v -227.048828 100.483284 -76.252937

v -228.194702 102.144272 -66.637123

v -228.046936 106.341148 -66.739182

v -227.324005 105.554916 -77.080109

v -225.133591 99.981781 -83.192047

v -226.662933 114.635971 -68.261780

v -223.398102 105.463181 -83.584686

v -220.842361 99.480263 -90.131142

v -225.631927 112.525253 -77.107803

v -224.351212 117.957787 -69.608917

v -221.548706 117.676994 -77.151306

v -221.215134 117.911575 -77.526421

v -221.169159 112.215134 -82.886635

v -217.415527 118.090408 -81.471794

v -219.472214 105.371437 -90.089272

v -211.970444 99.699806 -95.812119

v -216.706406 111.905014 -88.665459

v -211.657669 118.269226 -85.666679

v -210.798477 105.352127 -94.456688

v -202.316452 99.919350 -99.831001

v -208.834381 111.978943 -92.397415

v -205.762711 118.116676 -89.729317

v -202.124710 105.332817 -98.824097

v -200.962357 112.052879 -96.129356

v -198.862167 117.964127 -92.102272

v -188.740295 117.630371 -93.516701

v -194.425629 104.136620 -100.461205

v -193.764786 102.675415 -100.727036

v -192.171799 103.786446 -100.940453

v -193.422943 111.717949 -97.826775

v -188.570755 111.502396 -98.919189

v -179.452377 117.337044 -95.262619

v -179.382156 115.991318 -96.647568

v -180.504654 114.645576 -98.032547



vt -0.845703 1.468750

vt -0.841797 1.468750

vt -0.843750 1.479736

vt -0.845703 1.468750

vt -0.843750 1.479736

vt -0.841797 1.468750

vt -0.760742 1.417969

vt -0.754883 1.395508

vt -0.803711 1.375000

vt -0.813477 1.400391

vt -0.839844 1.364014

vt -0.782715 1.459961

vt -0.852051 1.392334

vt -0.881836 1.353027

vt -0.825684 1.437012

vt -0.841797 1.468750

vt -0.796875 1.473877

vt -0.845703 1.468750

vt -0.864258 1.429688

vt -0.877930 1.465576

vt -0.890625 1.383789

vt -0.937500 1.350586

vt -0.901367 1.420166

vt -0.917969 1.463379

vt -0.941895 1.381836

vt -0.993164 1.349121

vt -0.948242 1.419922

vt -0.958496 1.458008

vt -0.993164 1.378418

vt -0.996094 1.416748

vt -1.000977 1.456299

vt -1.056641 1.456787

vt -1.034180 1.371826

vt -1.039063 1.364258

vt -1.047852 1.369873

vt -1.036133 1.414795

vt -1.063477 1.413330

vt -1.109375 1.453125

vt -1.110352 1.442871

vt -1.105469 1.432373

vt -0.803711 1.375000

vt -0.754883 1.395508

vt -0.760742 1.417969

vt -0.813477 1.400391

vt -0.839844 1.364014

vt -0.782715 1.459961

vt -0.852051 1.392334

vt -0.881836 1.353027

vt -0.825684 1.437012

vt -0.796875 1.473877

vt -0.841797 1.468750

vt -0.845703 1.468750

vt -0.864258 1.429688

vt -0.877930 1.465576

vt -0.890625 1.383789

vt -0.937500 1.350586

vt -0.901367 1.420166

vt -0.917969 1.463379

vt -0.941895 1.381836

vt -0.993164 1.349121

vt -0.948242 1.419922

vt -0.958496 1.458008

vt -0.993164 1.378418

vt -0.996094 1.416748

vt -1.000977 1.456299

vt -1.056641 1.456787

vt -1.034180 1.371826

vt -1.039063 1.364258

vt -1.047852 1.369873

vt -1.036133 1.414795

vt -1.063477 1.413330

vt -1.109375 1.453125

vt -1.110352 1.442871

vt -1.105469 1.432373



vn -0.031496 0.858268 0.511811

vn -0.031496 0.858268 0.511811

vn -0.031496 0.858268 0.511811

vn -0.031496 0.858268 -0.511811

vn -0.031496 0.858268 -0.511811

vn -0.031496 0.858268 -0.511811

vn -0.992126 0.070866 0.094488

vn -0.992126 0.031496 0.125984

vn -0.984252 -0.070866 0.165354

vn -0.960630 0.094488 0.275591

vn -0.866142 0.157480 0.472441

vn -0.913386 0.354331 0.196850

vn -0.818898 0.251969 0.519685

vn -0.716535 0.181102 0.677165

vn -0.842520 0.393701 0.370079

vn -0.763780 0.582677 0.283465

vn -0.834646 0.448819 0.322835

vn -0.677165 0.543307 0.496063

vn -0.708661 0.440945 0.559055

vn -0.582677 0.574803 0.574803

vn -0.653543 0.283465 0.700787

vn -0.425197 0.259843 0.866142

vn -0.519685 0.496063 0.692913

vn -0.425197 0.606299 0.669291

vn -0.409449 0.322835 0.850394

vn -0.314961 0.204724 0.929134

vn -0.401575 0.472441 0.787402

vn -0.385827 0.551181 0.740157

vn -0.307087 0.283465 0.905512

vn -0.259843 0.496063 0.826772

vn -0.165354 0.598425 0.787402

vn -0.118110 0.637795 0.755906

vn -0.157480 0.236220 0.960630

vn -0.165354 0.102362 0.984252

vn -0.173228 0.267717 0.944882

vn -0.157480 0.511811 0.842520

vn -0.157480 0.566929 0.811024

vn -0.149606 0.685039 0.716535

vn -0.188976 0.724409 0.661417

vn -0.244094 0.787402 0.566929

vn -0.984252 -0.070866 -0.165354

vn -0.992126 0.031496 -0.125984

vn -0.992126 0.070866 -0.094488

vn -0.960630 0.094488 -0.275591

vn -0.866142 0.157480 -0.472441

vn -0.913386 0.354331 -0.196850

vn -0.818898 0.251969 -0.519685

vn -0.716535 0.181102 -0.677165

vn -0.842520 0.393701 -0.370079

vn -0.834646 0.448819 -0.322835

vn -0.763780 0.582677 -0.283465

vn -0.677165 0.543307 -0.496063

vn -0.708661 0.440945 -0.559055

vn -0.582677 0.574803 -0.574803

vn -0.653543 0.283465 -0.700787

vn -0.425197 0.259843 -0.866142

vn -0.519685 0.496063 -0.692913

vn -0.425197 0.606299 -0.669291

vn -0.409449 0.322835 -0.850394

vn -0.314961 0.204724 -0.929134

vn -0.401575 0.472441 -0.787402

vn -0.385827 0.551181 -0.740157

vn -0.307087 0.283465 -0.905512

vn -0.259843 0.496063 -0.826772

vn -0.165354 0.598425 -0.787402

vn -0.118110 0.637795 -0.755906

vn -0.157480 0.236220 -0.960630

vn -0.165354 0.102362 -0.984252

vn -0.173228 0.267717 -0.944882

vn -0.157480 0.511811 -0.842520

vn -0.157480 0.566929 -0.811024

vn -0.149606 0.685039 -0.716535

vn -0.188976 0.724409 -0.661417

vn -0.244094 0.787402 -0.566929

f 1/1/1 2/2/2 3/3/3

f 4/4/4 5/5/5 6/6/6

f 7/7/7 8/8/8 9/9/9

f 9/9/9 10/10/10 7/7/7

f 10/10/10 9/9/9 11/11/11

f 12/12/12 7/7/7 10/10/10

f 11/11/11 13/13/13 10/10/10

f 13/13/13 11/11/11 14/14/14

f 10/10/10 15/15/15 12/12/12

f 15/15/15 10/10/10 13/13/13

f 16/16/16 17/17/17 12/12/12

f 12/12/12 15/15/15 16/16/16

f 15/15/15 18/18/18 16/16/16

f 18/18/18 15/15/15 19/19/19

f 13/13/13 19/19/19 15/15/15

f 19/19/19 20/20/20 18/18/18

f 14/14/14 21/21/21 13/13/13

f 19/19/19 13/13/13 21/21/21

f 21/21/21 14/14/14 22/22/22

f 20/20/20 19/19/19 23/23/23

f 21/21/21 23/23/23 19/19/19

f 23/23/23 24/24/24 20/20/20

f 22/22/22 25/25/25 21/21/21

f 23/23/23 21/21/21 25/25/25

f 25/25/25 22/22/22 26/26/26

f 24/24/24 23/23/23 27/27/27

f 25/25/25 27/27/27 23/23/23

f 27/27/27 28/28/28 24/24/24

f 26/26/26 29/29/29 25/25/25

f 27/27/27 25/25/25 29/29/29

f 28/28/28 27/27/27 30/30/30

f 29/29/29 30/30/30 27/27/27

f 30/30/30 31/31/31 28/28/28

f 32/32/32 31/31/31 30/30/30

f 33/33/33 29/29/29 26/26/26

f 26/26/26 34/34/34 33/33/33

f 33/33/33 34/34/34 35/35/35

f 36/36/36 30/30/30 29/29/29

f 29/29/29 33/33/33 36/36/36

f 36/36/36 33/33/33 35/35/35

f 30/30/30 36/36/36 32/32/32

f 35/35/35 37/37/37 36/36/36

f 32/32/32 36/36/36 37/37/37

f 37/37/37 38/38/38 32/32/32

f 37/37/37 39/39/39 38/38/38

f 37/37/37 40/40/40 39/39/39

f 41/41/41 42/42/42 43/43/43

f 43/43/43 44/44/44 41/41/41

f 45/45/45 41/41/41 44/44/44

f 44/44/44 43/43/43 46/46/46

f 44/44/44 47/47/47 45/45/45

f 48/48/48 45/45/45 47/47/47

f 46/46/46 49/49/49 44/44/44

f 47/47/47 44/44/44 49/49/49

f 46/46/46 50/50/50 51/51/51

f 51/51/51 49/49/49 46/46/46

f 49/49/49 51/51/51 52/52/52

f 53/53/53 49/49/49 52/52/52

f 49/49/49 53/53/53 47/47/47

f 52/52/52 54/54/54 53/53/53

f 47/47/47 55/55/55 48/48/48

f 55/55/55 47/47/47 53/53/53

f 56/56/56 48/48/48 55/55/55

f 57/57/57 53/53/53 54/54/54

f 53/53/53 57/57/57 55/55/55

f 54/54/54 58/58/58 57/57/57

f 55/55/55 59/59/59 56/56/56

f 59/59/59 55/55/55 57/57/57

f 60/60/60 56/56/56 59/59/59

f 61/61/61 57/57/57 58/58/58

f 57/57/57 61/61/61 59/59/59

f 58/58/58 62/62/62 61/61/61

f 59/59/59 63/63/63 60/60/60

f 63/63/63 59/59/59 61/61/61

f 64/64/64 61/61/61 62/62/62

f 61/61/61 64/64/64 63/63/63

f 62/62/62 65/65/65 64/64/64

f 64/64/64 65/65/65 66/66/66

f 60/60/60 63/63/63 67/67/67

f 67/67/67 68/68/68 60/60/60

f 67/67/67 69/69/69 68/68/68

f 63/63/63 64/64/64 70/70/70

f 70/70/70 67/67/67 63/63/63

f 69/69/69 67/67/67 70/70/70

f 66/66/66 70/70/70 64/64/64

f 70/70/70 71/71/71 69/69/69

f 66/66/66 71/71/71 70/70/70

f 71/71/71 66/66/66 72/72/72

f 73/73/73 71/71/71 72/72/72

f 73/73/73 74/74/74 71/71/71

