# UnrealEd OBJ exporter (_Internal)



v -2.318241 0.462341 0.000001

v -1.959642 0.331822 0.000001

v -1.947367 0.365546 0.086643

v -2.305966 0.496066 0.086643

v -1.917734 0.446963 0.122532

v -2.276333 0.577483 0.122532

v -1.888100 0.528380 0.086643

v -2.246699 0.658899 0.086643

v -1.875826 0.562105 0.000001

v -2.234425 0.692624 0.000001

v -1.888101 0.528380 -0.086641

v -2.246699 0.658899 -0.086641

v -1.917734 0.446963 -0.122530

v -2.276333 0.577483 -0.122530

v -1.947367 0.365546 -0.086641

v -2.305966 0.496066 -0.086641

v -1.959642 0.331822 0.000001

v -2.318241 0.462341 0.000001

v -1.846665 0.317848 -0.097021

v -1.860410 0.280083 0.000001

v -1.943033 0.310155 0.000001

v -1.929287 0.347920 -0.097021

v -1.813481 0.409018 -0.137209

v -1.896104 0.439091 -0.137209

v -1.780298 0.500189 -0.097021

v -1.862920 0.530261 -0.097021

v -1.766553 0.537954 0.000001

v -1.849175 0.568026 0.000001

v -1.780298 0.500189 0.097023

v -1.862920 0.530262 0.097023

v -1.813481 0.409019 0.137211

v -1.896104 0.439091 0.137211

v -1.846665 0.317848 0.097023

v -1.929287 0.347920 0.097023

v -1.860410 0.280083 0.000001

v -1.943033 0.310155 0.000001

v -1.796349 0.490803 0.082712

v -1.796350 0.490802 -0.082710

v -1.784632 0.522997 0.000001

v -1.852927 0.335356 0.082712

v -1.824638 0.413079 0.116973

v -1.852927 0.335356 -0.082710

v -1.824638 0.413079 -0.116971

v -1.864645 0.303162 0.000001

v -1.780298 0.500189 -0.097021

v -1.784632 0.522997 0.000001

v -1.796350 0.490802 -0.082710

v -1.824638 0.413079 -0.116971

v -1.766553 0.537954 0.000001

v -1.813481 0.409018 -0.137209

v -1.796349 0.490803 0.082712

v -1.846665 0.317848 -0.097021

v -1.780298 0.500189 0.097023

v -1.852927 0.335356 -0.082710

v -1.824638 0.413079 0.116973

v -1.864645 0.303162 0.000001

v -1.813481 0.409019 0.137211

v -1.860410 0.280083 0.000001

v -1.846665 0.317848 0.097023

v -1.852927 0.335356 0.082712

v -1.896104 0.439091 0.137211

v -1.862920 0.530262 0.097023

v -1.888100 0.528380 0.086643

v -1.849175 0.568026 0.000001

v -1.917734 0.446963 0.122532

v -1.875826 0.562105 0.000001

v -1.947367 0.365546 0.086643

v -1.888101 0.528380 -0.086641

v -1.929287 0.347920 0.097023

v -1.862920 0.530261 -0.097021

v -1.943033 0.310155 0.000001

v -1.896104 0.439091 -0.137209

v -1.959642 0.331822 0.000001

v -1.917734 0.446963 -0.122530

v -1.947367 0.365546 -0.086641

v -1.929287 0.347920 -0.097021

v -2.305966 0.496066 0.086643

v -2.327794 0.499522 0.000001

v -2.318241 0.462341 0.000001

v -2.305966 0.496066 -0.086641

v -2.318692 0.524529 0.064249

v -2.318692 0.524529 -0.064247

v -2.296718 0.584902 0.090861

v -2.276333 0.577483 0.122532

v -2.246699 0.658899 0.086643

v -2.296718 0.584902 -0.090859

v -2.276333 0.577483 -0.122530

v -2.246699 0.658899 -0.086641

v -2.274744 0.645276 0.064249

v -2.274744 0.645276 -0.064247

v -2.265642 0.670283 0.000001

v -2.234425 0.692624 0.000001



vt 0.562012 0.941833

vt 0.562012 0.995159

vt 0.548828 0.995159

vt 0.548828 0.941833

vt 0.535645 0.995159

vt 0.535645 0.941833

vt 0.522461 0.995159

vt 0.522461 0.941833

vt 0.509766 0.995159

vt 0.509766 0.941833

vt 0.496582 0.995159

vt 0.496582 0.941833

vt 0.483398 0.995159

vt 0.483398 0.941833

vt 0.470459 0.995159

vt 0.470459 0.941833

vt 0.457275 0.995159

vt 0.457275 0.941833

vt 0.281006 0.786499

vt 0.266357 0.786499

vt 0.266357 0.774170

vt 0.281006 0.774170

vt 0.295654 0.786499

vt 0.295654 0.774170

vt 0.310303 0.786499

vt 0.310303 0.774170

vt 0.325195 0.786499

vt 0.325195 0.774170

vt 0.339844 0.786499

vt 0.339844 0.774170

vt 0.354492 0.786499

vt 0.354492 0.774170

vt 0.369141 0.786499

vt 0.369141 0.774170

vt 0.383789 0.786499

vt 0.383789 0.774170

vt 0.194214 0.843384

vt 0.241577 0.843506

vt 0.217896 0.853271

vt 0.194092 0.795898

vt 0.184448 0.819580

vt 0.241333 0.796265

vt 0.251221 0.819946

vt 0.217773 0.786255

vt 0.246582 0.848389

vt 0.217896 0.853271

vt 0.241577 0.843506

vt 0.251221 0.819946

vt 0.218018 0.860229

vt 0.258301 0.819824

vt 0.194214 0.843384

vt 0.246216 0.791260

vt 0.189331 0.848389

vt 0.241333 0.796265

vt 0.184448 0.819580

vt 0.217773 0.786255

vt 0.177368 0.819702

vt 0.217773 0.779175

vt 0.189087 0.791016

vt 0.194092 0.795898

vt 0.174927 0.836060

vt 0.152588 0.860229

vt 0.148804 0.852295

vt 0.119629 0.860596

vt 0.166870 0.833008

vt 0.122681 0.852417

vt 0.167847 0.806641

vt 0.104309 0.833618

vt 0.175903 0.803101

vt 0.096252 0.837158

vt 0.152588 0.779785

vt 0.096252 0.803955

vt 0.149536 0.787964

vt 0.104492 0.807007

vt 0.123291 0.788086

vt 0.119568 0.780151

vt 0.171021 0.806030

vt 0.146606 0.796631

vt 0.150757 0.786011

vt 0.122437 0.786133

vt 0.160400 0.810547

vt 0.126953 0.796753

vt 0.160034 0.830200

vt 0.170776 0.834717

vt 0.150513 0.854736

vt 0.112854 0.810425

vt 0.102173 0.806152

vt 0.102173 0.834595

vt 0.146240 0.844238

vt 0.112671 0.829956

vt 0.126465 0.843872

vt 0.122314 0.854614



vn -0.708661 -0.708661 0.000000

vn -0.606299 -0.795276 0.000000

vn -0.511811 -0.527559 0.677165

vn -0.622047 -0.456693 0.637795

vn -0.283465 0.102362 0.952756

vn -0.401575 0.141732 0.905512

vn -0.055118 0.740157 0.677165

vn -0.181102 0.748031 0.637795

vn 0.047244 1.000000 0.000000

vn -0.086614 0.992126 0.000000

vn -0.055118 0.740157 -0.677165

vn -0.181102 0.748031 -0.637795

vn -0.283465 0.102362 -0.952756

vn -0.401575 0.141732 -0.905512

vn -0.511811 -0.527559 -0.677165

vn -0.622047 -0.456693 -0.637795

vn -0.606299 -0.795276 0.000000

vn -0.708661 -0.708661 0.000000

vn -0.244094 -0.661417 -0.708661

vn -0.338583 -0.937008 0.000000

vn -0.574803 -0.818898 0.000000

vn -0.480315 -0.551181 -0.685039

vn 0.000000 0.000000 -1.000000

vn -0.244094 0.086614 -0.968504

vn 0.244094 0.661417 -0.708661

vn -0.015748 0.732283 -0.685039

vn 0.338583 0.937008 0.000000

vn 0.078740 1.000000 0.000000

vn 0.244094 0.661417 0.708661

vn -0.015748 0.732283 0.685039

vn 0.000000 0.000000 1.000000

vn -0.244094 0.086614 0.968504

vn -0.244094 -0.661417 0.708661

vn -0.480315 -0.551181 0.685039

vn -0.338583 -0.937008 0.000000

vn -0.574803 -0.818898 0.000000

vn 0.937008 -0.338583 0.000000

vn 0.937008 -0.338583 0.000000

vn 0.937008 -0.338583 0.000000

vn 0.937008 -0.338583 0.000000

vn 0.937008 -0.338583 0.000000

vn 0.937008 -0.338583 0.000000

vn 0.937008 -0.338583 0.000000

vn 0.937008 -0.338583 0.000000

vn 0.685039 -0.629921 0.354331

vn 0.637795 -0.771654 0.000000

vn 0.685039 -0.629921 0.354331

vn 0.811024 -0.291339 0.503937

vn 0.637795 -0.771654 0.000000

vn 0.811024 -0.291339 0.503937

vn 0.685039 -0.629921 -0.354331

vn 0.929134 0.039370 0.354331

vn 0.685039 -0.629921 -0.354331

vn 0.929134 0.039370 0.354331

vn 0.811024 -0.291339 -0.503937

vn 0.984252 0.181102 0.000000

vn 0.811024 -0.291339 -0.503937

vn 0.984252 0.181102 0.000000

vn 0.929134 0.039370 -0.354331

vn 0.929134 0.039370 -0.354331

vn -0.244094 0.086614 0.968504

vn -0.015748 0.732283 0.685039

vn -0.055118 0.740157 0.677165

vn 0.078740 1.000000 0.000000

vn -0.283465 0.102362 0.952756

vn 0.047244 1.000000 0.000000

vn -0.511811 -0.527559 0.677165

vn -0.055118 0.740157 -0.677165

vn -0.480315 -0.551181 0.685039

vn -0.015748 0.732283 -0.685039

vn -0.574803 -0.818898 0.000000

vn -0.244094 0.086614 -0.968504

vn -0.606299 -0.795276 0.000000

vn -0.283465 0.102362 -0.952756

vn -0.511811 -0.527559 -0.677165

vn -0.480315 -0.551181 -0.685039

vn -0.622047 -0.456693 0.637795

vn -1.000000 -0.015748 0.000000

vn -0.708661 -0.708661 0.000000

vn -0.622047 -0.456693 -0.637795

vn -0.960630 0.078740 0.251969

vn -0.960630 0.078740 -0.251969

vn -0.874016 0.322835 0.362205

vn -0.401575 0.141732 0.905512

vn -0.181102 0.748031 0.637795

vn -0.874016 0.322835 -0.362205

vn -0.401575 0.141732 -0.905512

vn -0.181102 0.748031 -0.637795

vn -0.787402 0.559055 0.251969

vn -0.787402 0.559055 -0.251969

vn -0.755906 0.653543 0.000000

vn -0.086614 0.992126 0.000000

f 1/1/1 2/2/2 3/3/3

f 3/3/3 4/4/4 1/1/1

f 4/4/4 3/3/3 5/5/5

f 5/5/5 6/6/6 4/4/4

f 6/6/6 5/5/5 7/7/7

f 7/7/7 8/8/8 6/6/6

f 8/8/8 7/7/7 9/9/9

f 9/9/9 10/10/10 8/8/8

f 10/10/10 9/9/9 11/11/11

f 11/11/11 12/12/12 10/10/10

f 12/12/12 11/11/11 13/13/13

f 13/13/13 14/14/14 12/12/12

f 14/14/14 13/13/13 15/15/15

f 15/15/15 16/16/16 14/14/14

f 16/16/16 15/15/15 17/17/17

f 17/17/17 18/18/18 16/16/16

f 19/19/19 20/20/20 21/21/21

f 19/19/19 21/21/21 22/22/22

f 23/23/23 19/19/19 22/22/22

f 23/23/23 22/22/22 24/24/24

f 25/25/25 23/23/23 24/24/24

f 25/25/25 24/24/24 26/26/26

f 27/27/27 25/25/25 26/26/26

f 27/27/27 26/26/26 28/28/28

f 29/29/29 27/27/27 28/28/28

f 29/29/29 28/28/28 30/30/30

f 31/31/31 29/29/29 30/30/30

f 31/31/31 30/30/30 32/32/32

f 33/33/33 31/31/31 32/32/32

f 33/33/33 32/32/32 34/34/34

f 35/35/35 33/33/33 34/34/34

f 35/35/35 34/34/34 36/36/36

f 37/37/37 38/38/38 39/39/39

f 40/40/40 37/37/37 41/41/41

f 38/38/38 37/37/37 40/40/40

f 38/38/38 40/40/40 42/42/42

f 38/38/38 42/42/42 43/43/43

f 42/42/42 40/40/40 44/44/44

f 45/45/45 46/46/46 47/47/47

f 48/48/48 45/45/45 47/47/47

f 45/45/45 49/49/49 46/46/46

f 45/45/45 48/48/48 50/50/50

f 49/49/49 51/51/51 46/46/46

f 52/52/52 50/50/50 48/48/48

f 49/49/49 53/53/53 51/51/51

f 52/52/52 48/48/48 54/54/54

f 53/53/53 55/55/55 51/51/51

f 56/56/56 52/52/52 54/54/54

f 55/55/55 53/53/53 57/57/57

f 52/52/52 56/56/56 58/58/58

f 59/59/59 55/55/55 57/57/57

f 59/59/59 58/58/58 56/56/56

f 55/55/55 59/59/59 60/60/60

f 56/56/56 60/60/60 59/59/59

f 61/61/61 62/62/62 63/63/63

f 64/64/64 63/63/63 62/62/62

f 61/61/61 63/63/63 65/65/65

f 63/63/63 64/64/64 66/66/66

f 67/67/67 61/61/61 65/65/65

f 64/64/64 68/68/68 66/66/66

f 61/61/61 67/67/67 69/69/69

f 64/64/64 70/70/70 68/68/68

f 71/71/71 69/69/69 67/67/67

f 72/72/72 68/68/68 70/70/70

f 71/71/71 67/67/67 73/73/73

f 68/68/68 72/72/72 74/74/74

f 75/75/75 71/71/71 73/73/73

f 72/72/72 75/75/75 74/74/74

f 71/71/71 75/75/75 76/76/76

f 72/72/72 76/76/76 75/75/75

f 77/77/77 78/78/78 79/79/79

f 80/80/80 79/79/79 78/78/78

f 78/78/78 77/77/77 81/81/81

f 80/80/80 78/78/78 82/82/82

f 77/77/77 83/83/83 81/81/81

f 83/83/83 78/78/78 81/81/81

f 83/83/83 77/77/77 84/84/84

f 85/85/85 83/83/83 84/84/84

f 78/78/78 86/86/86 82/82/82

f 86/86/86 80/80/80 82/82/82

f 86/86/86 78/78/78 83/83/83

f 80/80/80 86/86/86 87/87/87

f 88/88/88 87/87/87 86/86/86

f 83/83/83 85/85/85 89/89/89

f 88/88/88 86/86/86 90/90/90

f 91/91/91 83/83/83 89/89/89

f 86/86/86 83/83/83 91/91/91

f 91/91/91 89/89/89 85/85/85

f 86/86/86 91/91/91 90/90/90

f 91/91/91 88/88/88 90/90/90

f 85/85/85 92/92/92 91/91/91

f 88/88/88 91/91/91 92/92/92

