# UnrealEd OBJ exporter (_Internal)



v 0.000000 -0.030719 0.310139

v 0.707107 -0.030719 -0.000000

v 0.000000 0.044651 0.310139

v 0.707107 0.044651 -0.000000

v 0.000000 0.044651 0.310139

v 0.707107 0.044651 -0.000000

v 0.280423 0.044651 0.000000

v -0.000000 0.044651 -0.310210

v 0.280423 0.044651 0.000000

v -0.000000 0.044651 -0.310210

v 0.280423 -0.030719 -0.000000

v 0.000000 -0.030719 -0.310210

v 0.000000 -0.030719 -0.310210

v 0.707107 -0.030719 -0.000000

v 0.280423 -0.030719 -0.000000

v 0.000000 -0.030719 0.310139

v 0.707107 -0.030719 -0.000000

v 0.000000 -0.030719 -0.310210

v 0.707107 0.044651 -0.000000

v -0.000000 0.044651 -0.310210

v 0.280423 -0.030719 -0.000000

v 0.000000 -0.030719 0.310139

v 0.280423 0.044651 0.000000

v 0.000000 0.044651 0.310139



vt 0.375000 0.000000

vt 0.625000 0.000000

vt 0.375000 0.250000

vt 0.625000 0.250000

vt 0.375000 0.250000

vt 0.625000 0.250000

vt 0.375000 0.500000

vt 0.625000 0.500000

vt 0.375000 0.500000

vt 0.625000 0.500000

vt 0.375000 0.750000

vt 0.625000 0.750000

vt 0.625000 0.750000

vt 0.625000 1.000000

vt 0.375000 0.750000

vt 0.375000 1.000000

vt 0.625000 0.000000

vt 0.875000 0.000000

vt 0.625000 0.250000

vt 0.875000 0.250000

vt 0.125000 0.000000

vt 0.375000 0.000000

vt 0.125000 0.250000

vt 0.375000 0.250000



vn 0.401575 0.000000 0.913386

vn 0.401575 0.000000 0.913386

vn 0.401575 0.000000 0.913386

vn 0.401575 0.000000 0.913386

vn 0.000000 1.000000 0.000000

vn 0.000000 1.000000 0.000000

vn 0.000000 1.000000 0.000000

vn 0.000000 1.000000 0.000000

vn -0.740157 0.000000 0.669291

vn -0.740157 0.000000 0.669291

vn -0.740157 0.000000 0.669291

vn -0.740157 0.000000 0.669291

vn 0.000000 -1.000000 0.000000

vn 0.000000 -1.000000 0.000000

vn 0.000000 -1.000000 0.000000

vn 0.000000 -1.000000 0.000000

vn 0.401575 0.000000 -0.913386

vn 0.401575 0.000000 -0.913386

vn 0.401575 0.000000 -0.913386

vn 0.401575 0.000000 -0.913386

vn -0.740157 0.000000 -0.669291

vn -0.740157 0.000000 -0.669291

vn -0.740157 0.000000 -0.669291

vn -0.740157 0.000000 -0.669291

f 1/1/1 2/2/2 3/3/3

f 3/3/3 2/2/2 4/4/4

f 5/5/5 6/6/6 7/7/7

f 7/7/7 6/6/6 8/8/8

f 9/9/9 10/10/10 11/11/11

f 11/11/11 10/10/10 12/12/12

f 13/13/13 14/14/14 15/15/15

f 15/15/15 14/14/14 16/16/16

f 17/17/17 18/18/18 19/19/19

f 19/19/19 18/18/18 20/20/20

f 21/21/21 22/22/22 23/23/23

f 23/23/23 22/22/22 24/24/24

